<svg xmlns="http://www.w3.org/2000/svg"
     xmlns:xlink="http://www.w3.org/1999/xlink"
     version="1.1" id="Layer_1" x="0px" y="0px"
     width="100%" viewBox="0 0 864 1024"
     enable-background="new 0 0 864 1024"
     xml:space="preserve">
    <path fill="#195c08ff" opacity="1.000000"
    stroke="none" d=" M19.968544,416.000000
    C19.907190,335.835022 19.844872,256.170044
    19.796621,176.505051   C19.791475,168.008789 19.879845,168.451691 28.214298,167.506897   C47.065868,165.369812 65.887314,162.925842 84.677170,160.293701   C129.580185,154.003494 173.778229,144.203690 217.546249,132.529434   C248.454559,124.285263 278.688629,113.893745 308.500824,102.247086   C348.827728,86.492683 387.001526,66.494011 423.887695,43.994179   C429.987976,40.273121 434.590759,40.215382 440.601624,43.970615   C483.984528,71.073631 529.876587,93.056664 577.957703,110.512054   C610.072815,122.171143 642.703552,132.027039 675.941895,139.993454   C707.373901,147.526978 739.020996,153.926254 770.904846,159.121078   C793.093384,162.736237 815.380981,165.767166 837.854065,167.052948   C842.323364,167.308670 844.342102,169.066299 844.478455,173.769806   C845.357117,204.085220 845.144287,234.408813 844.926086,264.722046   C844.625061,306.546570 844.001099,348.370331 844.438660,390.194641   C844.614624,407.014160 844.615479,423.817902 844.358887,440.638397   C843.729370,481.910553 838.415955,522.567261 830.033386,562.933594   C820.159729,610.480042 803.084595,655.310913 779.553955,697.643005   C759.888855,733.021118 735.755188,765.153076 707.908020,794.642761   C682.190247,821.877502 654.044678,846.248840 624.437378,869.022156   C601.849609,886.396240 578.042664,902.048523 554.454163,918.016907   C521.457336,940.354431 487.279449,960.735901 452.802063,980.649475   C447.610626,983.647949 442.354462,986.536011 437.198456,989.593567   C433.723328,991.654419 430.720093,991.626587 426.996063,989.537109   C385.712219,966.373230 345.370483,941.690491 305.972534,915.446350   C256.101685,882.225952 207.975296,846.785645 165.685028,804.071472   C136.606552,774.701477 111.575470,742.127808 90.542961,706.495361   C68.386009,668.958069 51.941082,628.981018 40.467278,587.050537   C31.317589,553.613586 25.283163,519.547241 22.562981,484.884003   C20.775108,462.101166 20.312071,439.313812 19.968544,416.000000  M590.943604,831.431458   C607.092896,819.080078 622.743286,806.134033 638.006592,792.695007   C683.927429,752.262390 721.484619,705.372681 748.210266,650.150696   C768.453857,608.322266 781.406189,564.166504 788.488953,518.340576   C793.482239,486.033752 795.226868,453.460052 794.883301,420.736450   C794.397156,374.425110 794.998718,328.107697 794.386536,281.792328   C794.109558,260.836151 794.535583,239.868301 794.838806,218.908600   C794.910828,213.929535 793.088501,211.682175 788.034851,211.218262   C781.420715,210.611099 774.873413,209.301529 768.285522,208.378448   C716.091064,201.065018 664.825439,189.661530 614.292053,174.631088   C551.745850,156.027603 491.892090,131.294861 435.470825,98.425484   C432.600861,96.753517 430.277222,97.178314 427.592194,98.774384   C396.895416,117.021812 364.952423,132.787720 331.837250,146.124039   C282.140411,166.138184 230.960541,181.469864 178.752136,193.295578   C146.113251,200.688599 113.193192,206.694946 79.902832,210.479843   C69.432472,211.670258 69.198151,212.097961 69.193283,222.986511   C69.175690,262.314941 68.871964,301.645874 69.215027,340.971161   C69.613113,386.603790 67.172897,432.287628 71.191200,477.860992   C74.192780,511.903290 79.899574,545.443115 89.201118,578.406921   C104.977699,634.317627 131.172485,684.785339 166.809631,730.528198   C197.288376,769.649902 234.316879,801.784119 273.747284,831.389160   C307.343475,856.613708 342.141571,880.066406 377.923676,902.073853   C394.380096,912.195312 410.727325,922.492249 427.551331,932.007080   C430.591339,933.726318 433.234009,934.125977 436.388519,932.231812   C450.381805,923.829468 464.655975,915.881042 478.477386,907.208801   C516.581604,883.300354 554.328308,858.842224 590.943604,831.431458  z"/>
    <path fill="#d1cb18ff" opacity="1.000000" stroke="none" d=" M186.760849,218.733246
    C216.108932,211.560196 245.088333,204.621002 273.437683,195.330963   C323.378113,178.965530 372.116302,159.755768 418.258209,134.372269
    C431.798340,126.923592 431.829498,126.860229 445.327484,134.202499   C477.859894,151.898636 511.488281,167.203186 546.218384,180.021179
    C586.093140,194.737900 626.890076,206.293869 668.233215,216.220688   C699.518921,223.732666 731.197632,228.917282 762.759277,234.840622
    C766.498718,235.542419 768.240601,237.081406 768.235107,241.066727   C768.191284,272.730560 768.251465,304.394653 768.363037,336.058411
    C768.376099,339.765961 766.792908,341.475159 763.194153,342.021759   C750.667542,343.924500 738.393433,346.993805 726.183167,350.331848
    C720.546570,351.872742 719.798767,351.275116 719.725586,345.358063   C719.468018,324.535950 719.115234,303.714355 719.012756,282.891541
    C718.989990,278.268372 717.371765,275.908112 712.715271,275.001984   C686.559998,269.912415 660.505188,264.337677 634.687317,257.725677
    C572.431274,241.781937 511.612579,221.822769 454.062592,192.781570   C448.560760,190.005203 442.972961,187.386032 437.576050,184.419174
    C433.363892,182.103592 429.542297,182.133377 425.339874,184.517807   C408.077850,194.312164 390.028839,202.490921 371.841949,210.399033
    C347.690552,220.900665 323.003204,229.848053 297.940948,237.970413   C272.254639,246.294998 246.439438,254.034546 220.221817,260.450775
    C198.382736,265.795410 176.414658,270.530060 154.256287,274.373962   C144.999054,275.979858 145.129852,276.071472 144.987350,285.612793
    C144.656433,307.769836 145.401962,329.929901 144.469940,352.091431   C144.131638,360.135681 145.623001,367.691406 140.631134,374.564819
    C144.132172,305.755219 143.884872,347.893738 143.087845,410.563538   C148.046616,509.650055 153.367783,525.143555 157.625656,544.032349
    C167.359436,587.213440 184.935730,627.208374 210.023117,663.711670   C231.291504,694.658203 257.194946,721.422058 285.725891,745.748230
    C324.138763,778.500122 366.079742,806.206543 409.004395,832.532898   C415.253204,836.365417 421.494568,840.212036 427.677338,844.149475
    C431.005127,846.268677 434.046967,846.250061 437.424866,844.086243   C474.436096,820.376953 511.893677,797.369202 546.903442,770.637512
    C572.525146,751.074219 596.483765,729.756714 618.752930,706.485291   C653.822632,669.837280 679.622192,627.505066 696.505554,579.720581
    C704.838684,556.135681 710.643311,531.976196 714.292542,507.170807   C718.161133,480.874603 719.060059,454.468719 719.558228,428.003326
    C719.632385,424.061371 720.875916,421.454315 724.105408,419.293671   C736.571472,410.953461 749.365540,403.143524 762.230225,395.447754
    C766.627930,392.817017 768.021240,393.647491 768.086182,399.039764   C768.401245,425.200684 768.295593,451.368103 765.912842,477.439758
    C763.640015,502.307861 760.218811,527.018677 754.810730,551.447510   C746.909180,587.138977 734.090942,620.989075 716.955811,653.184570
    C701.949036,681.380737 683.740295,707.391235 662.392883,731.229370   C635.268250,761.518616 604.822754,787.986755 572.304871,812.326538
    C538.113281,837.919250 502.086517,860.702393 466.207336,883.738403   C456.961609,889.674622 447.352356,895.043762 438.088135,900.952576
    C434.018982,903.547852 430.590698,903.321594 426.563568,900.908142   C388.536987,878.119568 351.265778,854.197205 315.041016,828.608337
    C289.564941,810.612305 264.498718,792.155762 241.527344,771.009644   C204.121460,736.575928 171.835144,698.051758 147.723160,653.032959
    C128.315506,616.797607 114.707947,578.529236 106.906631,538.151794   C100.189514,503.385803 96.745232,468.341766 96.655609,432.933228
    C96.494904,369.442963 96.243340,305.952667 95.824135,242.463760      C95.789886,237.276321 97.675087,235.543396 102.488945,234.744354
    C130.564423,230.084106 158.642365,225.402740 186.760849,218.733246  z"/>
    <path fill="#24890bff" opacity="1.000000" stroke="none" d=" M359.881226,428.120941   C380.812592,449.984680 395.993591,475.034515 406.615875,502.912415   C408.798004,508.639343 408.339935,509.291779 402.241241,509.262848   C369.076202,509.105591 337.308472,503.575073 308.639709,485.489014   C289.386963,473.343140 277.367279,455.476562 267.788452,435.508850   C260.611938,420.548889 256.800140,404.459686 251.950790,388.716980   C245.443069,367.590637 236.075424,348.100922 219.806519,332.556091   C219.374680,332.143463 219.159515,331.504028 218.924423,331.107239   C219.551346,329.662170 220.650436,329.746033 221.605957,329.753204   C268.999451,330.107452 315.353424,336.044373 358.674408,356.761353   C400.278320,376.657227 425.859985,410.015320 437.305786,454.146637   C442.822693,475.417938 449.648651,496.290741 455.125397,517.553467   C458.399231,530.263855 458.675873,543.237305 458.398254,556.260132   C458.350647,558.493774 457.565033,560.949768 459.540436,562.904968   C462.037842,563.040894 462.916962,560.998779 464.122711,559.517029   C508.868652,504.528137 560.392334,457.166351 621.428650,420.699463   C665.378174,394.441315 711.996033,374.787506 762.726868,365.884155   C764.144653,365.635376 765.618286,364.904999 767.129517,365.877228   C767.404236,367.926941 765.632263,368.251038 764.434021,368.874695   C725.837402,388.963409 690.450500,413.756439 657.030334,441.527588   C621.807678,470.796539 590.108398,503.503021 560.707397,538.538513   C531.210632,573.688171 504.308624,610.752258 479.900269,649.556030   C465.898010,671.816467 453.336487,694.981995 440.075134,717.710205   C434.166473,727.836792 426.199951,735.577026 414.594208,738.860474   C403.075531,742.119324 392.786011,739.624207 383.918091,731.743225   C376.230957,724.911682 371.238831,715.911011 365.342407,707.655640   C342.200623,675.255676 316.400238,645.268311 285.477631,619.981201   C275.745972,612.023071 264.945526,605.715637 252.989761,601.645935   C249.193726,600.353760 248.476196,598.877991 251.223312,595.745728   C261.720703,583.776672 273.035919,572.802063 287.255096,565.238037   C307.791260,554.313660 328.467682,558.334534 347.324524,576.339783   C366.195923,594.358826 382.941681,614.160461 398.329163,635.171692   C399.687897,637.027100 400.891296,639.090698 403.938629,640.351074   C407.231323,635.190918 410.968750,630.138733 413.871582,624.645569   C426.596497,600.565674 434.403595,575.061401 433.615021,547.597839   C432.784515,518.674866 424.326660,491.938751 408.802582,467.437073   C391.675720,440.405731 368.835663,419.436127 341.349060,403.353729   C338.606934,401.749298 335.828156,399.737183 330.587524,400.838776   C340.813934,410.385498 350.843719,418.500702 359.881226,428.120941  z"/>
    <path fill="#24890bff" opacity="1.000000" stroke="none" d=" M559.406250,396.347046   C546.635986,414.402130 529.661560,426.045074 509.328583,433.369324   C498.134766,437.401459 487.890411,443.231293 479.427124,451.916962   C471.905121,459.636627 466.788269,468.577026 464.294556,479.045074   C463.920593,480.614868 463.950348,482.408295 461.109009,483.877411   C460.522308,477.247772 460.528809,471.130951 461.201599,464.964722   C465.644592,424.242310 483.156464,388.852386 505.776093,355.533691   C507.354095,353.209290 509.905518,351.061737 507.694733,346.610168   C478.575745,371.437653 461.517151,403.165833 449.096222,439.354980   C446.197601,433.926575 445.136932,429.067230 443.888336,424.414551   C434.080841,387.867798 441.329773,354.862549 466.467499,326.660187   C481.353027,309.959961 499.951111,297.696350 520.746155,289.208923   C543.624023,279.871338 567.071594,272.401031 591.754944,269.477692   C593.502625,269.270721 595.305847,268.277740 596.943420,269.660706   C597.416382,270.574890 597.170593,271.307037 596.683228,272.050018   C586.561646,287.480988 582.029846,304.706573 580.179688,322.848236   C578.455383,339.756531 576.172363,356.571442 571.219299,372.922394   C568.672363,381.330170 564.370728,388.790466 559.406250,396.347046  z"/>
</svg>
